HIERARCHY
ROOT Hips
{
	OFFSET 0.000000 71.427986 0.000000
	CHANNELS 6 Xposition Yposition Zposition Xrotation Yrotation Zrotation
	JOINT Pelvis
	{
		OFFSET 0.000000 0.000000 0.000000
		CHANNELS 3 Xrotation Yrotation Zrotation
		JOINT LeftUpLeg
		{
			OFFSET 6.797100 -2.508499 -1.318700
			CHANNELS 3 Xrotation Yrotation Zrotation
			JOINT LeftLeg
			{
				OFFSET 0.069008 -29.241863 0.690200
				CHANNELS 3 Xrotation Yrotation Zrotation
				JOINT LeftFoot
				{
					OFFSET -0.069008 -29.568123 -0.266800
					CHANNELS 3 Xrotation Yrotation Zrotation
					JOINT LeftToeBase
					{
						OFFSET 3.145500 -8.631000 16.059900
						CHANNELS 3 Xrotation Yrotation Zrotation
						End Site
						{
							OFFSET 0.000000 18.501587 0.000000
						}
					}
				}
			}
			JOINT Left_ShortSleeve
			{
				OFFSET 0.265923 -10.480953 1.153800
				CHANNELS 3 Xrotation Yrotation Zrotation
				End Site
				{
					OFFSET 1.725763 19.823879 0.000000
				}
			}
		}
		JOINT RightUpLeg
		{
			OFFSET -6.797100 -2.508499 -1.318700
			CHANNELS 3 Xrotation Yrotation Zrotation
			JOINT RightLeg
			{
				OFFSET -0.082453 -29.241932 0.688000
				CHANNELS 3 Xrotation Yrotation Zrotation
				JOINT RightFoot
				{
					OFFSET 0.082453 -29.568058 -0.264600
					CHANNELS 3 Xrotation Yrotation Zrotation
					JOINT RightToeBase
					{
						OFFSET -3.115300 -8.682800 16.113400
						CHANNELS 3 Xrotation Yrotation Zrotation
						End Site
						{
							OFFSET 0.000000 18.567114 0.000000
						}
					}
				}
			}
			JOINT Right_ShortSleeve
			{
				OFFSET -0.265923 -10.480953 1.153800
				CHANNELS 3 Xrotation Yrotation Zrotation
				End Site
				{
					OFFSET -1.725766 19.823910 0.000000
				}
			}
		}
	}
	JOINT Spine
	{
		OFFSET 0.000000 13.368103 0.470500
		CHANNELS 3 Xrotation Yrotation Zrotation
		JOINT Spine1
		{
			OFFSET 0.147000 13.837402 0.538800
			CHANNELS 3 Xrotation Yrotation Zrotation
			JOINT Spine2
			{
				OFFSET 0.168000 16.242897 -1.435500
				CHANNELS 3 Xrotation Yrotation Zrotation
				JOINT Neck
				{
					OFFSET 0.217200 18.631500 -1.679100
					CHANNELS 3 Xrotation Yrotation Zrotation
					JOINT Head
					{
						OFFSET 0.000000 6.599396 1.385900
						CHANNELS 3 Xrotation Yrotation Zrotation
						JOINT Hat
						{
							OFFSET -0.532200 27.220596 -10.096100
							CHANNELS 3 Xrotation Yrotation Zrotation
							End Site
							{
								OFFSET 0.000000 22.029861 0.000000
							}
						}
						JOINT HairD
						{
							OFFSET -10.777400 17.437393 -1.325900
							CHANNELS 3 Xrotation Yrotation Zrotation
							JOINT HairD1
							{
								OFFSET -3.290299 -11.051193 1.062200
								CHANNELS 3 Xrotation Yrotation Zrotation
								End Site
								{
									OFFSET 0.000000 11.579437 0.000000
								}
							}
						}
						JOINT HairB
						{
							OFFSET -10.777400 17.437393 1.467900
							CHANNELS 3 Xrotation Yrotation Zrotation
							JOINT HairB1
							{
								OFFSET -1.561200 -12.956299 3.590200
								CHANNELS 3 Xrotation Yrotation Zrotation
								End Site
								{
									OFFSET 0.000000 13.534866 0.000000
								}
							}
						}
						JOINT HairA
						{
							OFFSET 9.713100 17.437393 1.467900
							CHANNELS 3 Xrotation Yrotation Zrotation
							JOINT HairA1
							{
								OFFSET 1.561200 -12.956299 3.590200
								CHANNELS 3 Xrotation Yrotation Zrotation
								End Site
								{
									OFFSET 0.000000 13.534866 0.000000
								}
							}
						}
						JOINT HairC
						{
							OFFSET 9.713100 17.437393 -1.325900
							CHANNELS 3 Xrotation Yrotation Zrotation
							JOINT HairC1
							{
								OFFSET 3.290300 -11.051193 1.062200
								CHANNELS 3 Xrotation Yrotation Zrotation
								End Site
								{
									OFFSET 0.000000 11.579437 0.000000
								}
							}
						}
					}
				}
				JOINT LeftShoulder
				{
					OFFSET 5.101800 15.108002 -2.763700
					CHANNELS 3 Xrotation Yrotation Zrotation
					JOINT LeftArm
					{
						OFFSET 9.825497 2.506317 -1.597400
						CHANNELS 3 Xrotation Yrotation Zrotation
						JOINT LeftForeArm
						{
							OFFSET 21.966244 0.000000 0.000000
							CHANNELS 3 Xrotation Yrotation Zrotation
							JOINT LeftHand
							{
								OFFSET 33.879036 0.000000 0.000000
								CHANNELS 3 Xrotation Yrotation Zrotation
								JOINT LeftHandThumb1
								{
									OFFSET 6.715286 -2.359680 3.363841
									CHANNELS 3 Xrotation Yrotation Zrotation
									JOINT LeftHandThumb2
									{
										OFFSET 2.507072 -1.447464 1.447461
										CHANNELS 3 Xrotation Yrotation Zrotation
										JOINT LeftHandThumb3
										{
											OFFSET 2.898338 -1.673355 1.673357
											CHANNELS 3 Xrotation Yrotation Zrotation
											End Site
											{
												OFFSET -0.295959 3.727692 -0.131651
											}
										}
									}
								}
								JOINT LeftHandIndex1
								{
									OFFSET 14.190811 -0.254547 3.840278
									CHANNELS 3 Xrotation Yrotation Zrotation
									JOINT LeftHandIndex2
									{
										OFFSET 3.551727 0.000000 -0.000000
										CHANNELS 3 Xrotation Yrotation Zrotation
										JOINT LeftHandIndex3
										{
											OFFSET 2.894196 0.000000 0.000000
											CHANNELS 3 Xrotation Yrotation Zrotation
											End Site
											{
												OFFSET -1.000603 2.690872 0.366626
											}
										}
									}
								}
								JOINT LeftHandMiddle1
								{
									OFFSET 13.776489 0.000000 0.000000
									CHANNELS 3 Xrotation Yrotation Zrotation
									JOINT LeftHandMiddle2
									{
										OFFSET 3.438232 0.000000 0.000000
										CHANNELS 3 Xrotation Yrotation Zrotation
										JOINT LeftHandMiddle3
										{
											OFFSET 3.691551 0.000000 0.000000
											CHANNELS 3 Xrotation Yrotation Zrotation
											End Site
											{
												OFFSET -1.082298 3.499527 0.457670
											}
										}
									}
								}
								JOINT LeftHandRing1
								{
									OFFSET 13.966164 -0.268127 -3.067488
									CHANNELS 3 Xrotation Yrotation Zrotation
									JOINT LeftHandRing2
									{
										OFFSET 3.162567 0.000000 0.000000
										CHANNELS 3 Xrotation Yrotation Zrotation
										JOINT LeftHandRing3
										{
											OFFSET 3.324348 0.000000 0.000000
											CHANNELS 3 Xrotation Yrotation Zrotation
											End Site
											{
												OFFSET -0.861900 3.184998 0.405154
											}
										}
									}
								}
								JOINT LeftHandPinky1
								{
									OFFSET 13.131393 -0.168503 -5.746925
									CHANNELS 3 Xrotation Yrotation Zrotation
									JOINT LeftHandPinky2
									{
										OFFSET 2.849182 0.000000 0.000000
										CHANNELS 3 Xrotation Yrotation Zrotation
										JOINT LeftHandPinky3
										{
											OFFSET 2.805038 0.000000 0.000000
											CHANNELS 3 Xrotation Yrotation Zrotation
											End Site
											{
												OFFSET -0.882500 2.642609 0.325652
											}
										}
									}
								}
							}
							JOINT Left_Sleeve
							{
								OFFSET 6.592125 -0.646545 0.805568
								CHANNELS 3 Xrotation Yrotation Zrotation
								End Site
								{
									OFFSET -0.000179 20.275787 -0.000000
								}
							}
						}
					}
				}
				JOINT RightShoulder
				{
					OFFSET -5.731700 15.108002 -2.763700
					CHANNELS 3 Xrotation Yrotation Zrotation
					JOINT RightArm
					{
						OFFSET -9.825497 2.506317 -1.597400
						CHANNELS 3 Xrotation Yrotation Zrotation
						JOINT RightForeArm
						{
							OFFSET -21.966242 0.000000 0.000000
							CHANNELS 3 Xrotation Yrotation Zrotation
							JOINT RightHand
							{
								OFFSET -33.879032 0.000000 0.000000
								CHANNELS 3 Xrotation Yrotation Zrotation
								JOINT RightHandThumb1
								{
									OFFSET -6.715286 -2.359680 3.363841
									CHANNELS 3 Xrotation Yrotation Zrotation
									JOINT RightHandThumb2
									{
										OFFSET -2.507072 -1.447464 1.447461
										CHANNELS 3 Xrotation Yrotation Zrotation
										JOINT RightHandThumb3
										{
											OFFSET -2.898338 -1.673355 1.673357
											CHANNELS 3 Xrotation Yrotation Zrotation
											End Site
											{
												OFFSET 0.295959 3.727692 -0.131651
											}
										}
									}
								}
								JOINT RightHandIndex1
								{
									OFFSET -14.190811 -0.254547 3.840278
									CHANNELS 3 Xrotation Yrotation Zrotation
									JOINT RightHandIndex2
									{
										OFFSET -3.551727 0.000000 -0.000000
										CHANNELS 3 Xrotation Yrotation Zrotation
										JOINT RightHandIndex3
										{
											OFFSET -2.894196 0.000000 0.000000
											CHANNELS 3 Xrotation Yrotation Zrotation
											End Site
											{
												OFFSET 1.000603 2.690872 0.366626
											}
										}
									}
								}
								JOINT RightHandMiddle1
								{
									OFFSET -13.776489 0.000000 0.000000
									CHANNELS 3 Xrotation Yrotation Zrotation
									JOINT RightHandMiddle2
									{
										OFFSET -3.438232 0.000000 0.000000
										CHANNELS 3 Xrotation Yrotation Zrotation
										JOINT RightHandMiddle3
										{
											OFFSET -3.691551 0.000000 0.000000
											CHANNELS 3 Xrotation Yrotation Zrotation
											End Site
											{
												OFFSET 1.082298 3.499527 0.457670
											}
										}
									}
								}
								JOINT RightHandRing1
								{
									OFFSET -13.966164 -0.268127 -3.067488
									CHANNELS 3 Xrotation Yrotation Zrotation
									JOINT RightHandRing2
									{
										OFFSET -3.162567 0.000000 0.000000
										CHANNELS 3 Xrotation Yrotation Zrotation
										JOINT RightHandRing3
										{
											OFFSET -3.324348 0.000000 0.000000
											CHANNELS 3 Xrotation Yrotation Zrotation
											End Site
											{
												OFFSET 0.861900 3.184998 0.405154
											}
										}
									}
								}
								JOINT RightHandPinky1
								{
									OFFSET -13.131393 -0.168503 -5.746925
									CHANNELS 3 Xrotation Yrotation Zrotation
									JOINT RightHandPinky2
									{
										OFFSET -2.849182 0.000000 0.000000
										CHANNELS 3 Xrotation Yrotation Zrotation
										JOINT RightHandPinky3
										{
											OFFSET -2.805038 0.000000 0.000000
											CHANNELS 3 Xrotation Yrotation Zrotation
											End Site
											{
												OFFSET 0.882500 2.642609 0.325652
											}
										}
									}
								}
							}
							JOINT Right_Sleeve
							{
								OFFSET -6.592125 -0.646545 0.805568
								CHANNELS 3 Xrotation Yrotation Zrotation
								End Site
								{
									OFFSET 0.000179 20.275787 -0.000000
								}
							}
						}
					}
				}
				JOINT Bind_Right_JacketString
				{
					OFFSET -3.534800 11.969597 7.200700
					CHANNELS 3 Xrotation Yrotation Zrotation
					JOINT Bind_Right_JacketString1
					{
						OFFSET -0.319900 -6.102600 2.794100
						CHANNELS 3 Xrotation Yrotation Zrotation
						End Site
						{
							OFFSET 0.000000 6.719452 0.000000
						}
					}
				}
				JOINT Bind_Left_JacketString
				{
					OFFSET 2.904800 11.969597 7.200700
					CHANNELS 3 Xrotation Yrotation Zrotation
					JOINT Bind_Left_JacketString1
					{
						OFFSET 0.364800 -5.904503 3.186800
						CHANNELS 3 Xrotation Yrotation Zrotation
						End Site
						{
							OFFSET 0.000000 6.719513 0.000000
						}
					}
				}
				JOINT HairE
				{
					OFFSET 5.915200 17.612701 -11.592200
					CHANNELS 3 Xrotation Yrotation Zrotation
					JOINT HairE1
					{
						OFFSET 0.289200 -7.171898 -1.284500
						CHANNELS 3 Xrotation Yrotation Zrotation
						End Site
						{
							OFFSET 0.000000 7.291756 0.000000
						}
					}
				}
				JOINT HairF
				{
					OFFSET -0.864800 17.612701 -11.592200
					CHANNELS 3 Xrotation Yrotation Zrotation
					JOINT HairF1
					{
						OFFSET 0.000000 -14.087097 -2.127501
						CHANNELS 3 Xrotation Yrotation Zrotation
						End Site
						{
							OFFSET 0.000000 14.246841 0.000000
						}
					}
				}
				JOINT HairG
				{
					OFFSET -8.087700 17.612701 -11.592200
					CHANNELS 3 Xrotation Yrotation Zrotation
					JOINT HairG1
					{
						OFFSET -0.293600 -6.081398 -0.910100
						CHANNELS 3 Xrotation Yrotation Zrotation
						End Site
						{
							OFFSET 0.000000 6.156120 0.000000
						}
					}
				}
			}
		}
	}
	JOINT Pouch
	{
		OFFSET 0.000000 4.394501 10.847300
		CHANNELS 3 Xrotation Yrotation Zrotation
		End Site
		{
			OFFSET 0.000000 21.880577 0.000000
		}
	}
	JOINT Bag
	{
		OFFSET -13.229000 4.813004 -0.593300
		CHANNELS 3 Xrotation Yrotation Zrotation
		End Site
		{
			OFFSET 0.000000 21.880577 0.000000
		}
	}
	JOINT OccupyGuyFacialAnim_Joint
	{
		OFFSET 1.000000 -70.206398 -1.655000
		CHANNELS 3 Xrotation Yrotation Zrotation
		End Site
		{
			OFFSET 0.000000 21.880577 0.000000
		}
	}
}
MOTION
Frames: 4
Frame Time: 0.033333
-2.264908 63.311691 107.933273 28.213630 -53.015068 19.142056 -0.000001 -0.000000 0.000000 -45.605521 -3.872752 29.478290 39.335585 -3.490413 -8.695317 -7.931226 0.936434 -14.661491 0.000000 0.000000 -0.000000 0.000001 -0.000001 0.000002 -46.562267 -8.846433 -10.729081 56.679655 0.205473 -8.608315 -22.349899 -2.200868 12.363799 -0.000000 -0.000001 0.000000 -0.000001 -0.000003 -0.000002 15.419984 -1.078614 -7.382362 11.846395 -2.237446 -9.462799 11.863037 -1.690114 -8.109099 -11.155421 26.026992 -7.973584 -4.891116 20.788461 -13.604606 -0.000001 -0.000000 -0.000000 -0.000001 -0.000000 -0.000000 -0.000001 -0.000000 -0.000000 -0.000001 -0.000000 -0.000000 0.000000 -0.000001 0.000000 -0.000001 -0.000000 -0.000000 0.000000 -0.000001 0.000000 -0.000001 -0.000000 -0.000000 -0.000001 -0.000000 -0.000000 1.782316 -23.425426 0.635027 -42.188077 7.556121 -7.143894 37.496489 -54.442608 29.134749 -8.463603 -5.822794 27.727320 -0.209759 0.409792 12.320026 4.988058 28.003489 0.938973 0.000002 -0.000000 0.000000 13.377992 -1.189544 -2.122265 -0.152977 0.299678 -43.453745 0.000001 0.000001 -0.000004 8.369334 -0.157254 -15.255236 0.325031 0.680019 -44.243520 0.000003 -0.000000 0.000004 6.037677 3.325834 -30.348692 0.089183 0.404382 -44.269605 -0.000002 -0.000001 0.000001 -5.650694 7.787765 -27.665398 0.282670 0.310786 -60.379726 0.000001 0.000001 0.000003 0.000000 0.000002 -0.000005 1.741893 23.019505 2.038170 -41.639657 -44.970734 24.127795 10.815957 116.961116 0.822432 -29.273559 -8.323613 -13.014832 0.784367 3.339620 -13.201636 1.839673 -18.692899 2.512632 0.000004 -0.000001 -0.000001 18.995521 10.630372 -0.628647 -0.105114 -0.340315 30.747165 -0.000000 0.000003 0.000001 4.419509 2.210155 7.904131 0.382164 -0.510708 39.601830 -0.000001 -0.000005 0.000000 -6.312760 -10.264256 18.479362 0.136964 -0.173099 38.867082 -0.000001 -0.000000 -0.000003 -18.291750 -19.391421 18.900820 0.271430 -0.129207 49.555898 -0.000000 0.000003 -0.000001 0.000002 -0.000000 0.000000 0.000001 -0.000001 0.000001 -0.000000 0.000001 -0.000000 0.000001 -0.000001 0.000002 0.000001 -0.000001 0.000002 0.000001 -0.000001 0.000001 -0.000000 0.000001 -0.000000 0.000001 -0.000001 0.000002 0.000001 -0.000001 0.000002 0.000001 -0.000001 0.000001 -0.000000 0.000001 -0.000000 -0.000001 -0.000000 0.000000 -0.000001 -0.000000 0.000000 -0.000001 -0.000000 0.000000 
-2.181277 64.153076 108.854851 27.741028 -53.436596 19.021980 -0.000000 0.000001 -0.000001 -43.602517 -2.328514 28.356693 37.052718 -3.107011 -8.264213 -7.585874 1.098019 -13.966798 -0.000000 0.000001 0.000000 0.000000 0.000003 0.000000 -40.135803 -11.112906 -10.552962 44.923752 -3.038629 -7.695287 -20.401032 -0.374906 17.386089 -0.000000 -0.000000 -0.000000 -0.000000 -0.000002 -0.000000 14.899428 -0.881390 -7.539817 11.442077 -1.743997 -9.522544 11.461258 -1.223820 -8.147047 -13.284878 25.488147 -6.305191 -4.989087 21.042595 -12.589774 -0.000000 -0.000000 -0.000000 -0.000000 -0.000000 -0.000000 -0.000000 -0.000000 -0.000000 -0.000000 -0.000000 -0.000000 -0.000000 0.000000 0.000000 -0.000000 -0.000000 -0.000000 -0.000000 0.000000 0.000000 -0.000000 -0.000000 -0.000000 -0.000000 -0.000000 -0.000000 0.818170 -22.703846 0.379235 -39.546071 8.301596 -7.789021 38.822252 -55.756508 30.466745 -7.898567 -5.942939 27.354491 0.123268 0.977952 11.844508 5.072419 28.269258 1.031907 -0.000001 -0.000000 0.000000 13.428810 -1.080461 -3.486496 -0.150747 0.301069 -45.228741 -0.000002 0.000003 -0.000001 8.370905 -0.158526 -15.119633 0.323651 0.680154 -44.107900 0.000000 -0.000002 0.000000 6.038883 3.322665 -30.062579 0.087791 0.402662 -43.983567 0.000002 0.000003 -0.000001 -5.640106 7.779345 -27.280643 0.280906 0.310874 -59.993663 -0.000000 -0.000001 0.000001 0.000000 0.000002 0.000001 0.620464 22.931576 2.150936 -45.380931 -46.693089 18.081254 13.050845 120.289658 -0.257577 -30.548393 -9.610240 -14.533690 0.957072 1.275698 -13.940827 2.235499 -19.816243 2.069706 -0.000003 0.000000 -0.000002 19.100161 10.698191 2.924952 -0.101499 -0.342444 34.305527 0.000001 -0.000001 0.000002 4.365726 2.186437 11.463337 0.396556 -0.524712 43.160286 -0.000000 -0.000001 -0.000003 -6.431965 -10.349199 22.030866 0.152231 -0.188990 42.425474 0.000001 -0.000001 -0.000000 -18.481080 -19.502466 22.430840 0.285536 -0.139380 53.114225 -0.000001 -0.000000 -0.000001 0.000001 -0.000002 -0.000000 -0.000000 0.000001 -0.000003 -0.000000 0.000001 -0.000000 -0.000000 0.000001 -0.000002 -0.000000 0.000001 -0.000002 -0.000000 0.000001 -0.000003 -0.000000 0.000001 -0.000000 -0.000000 0.000001 -0.000002 -0.000000 0.000001 -0.000002 -0.000000 0.000001 -0.000003 -0.000000 0.000001 -0.000000 -0.000000 0.000001 -0.000001 -0.000000 0.000001 -0.000001 -0.000000 0.000001 -0.000001 
-2.078992 64.564842 109.778450 27.080513 -53.848559 18.765950 -0.000000 0.000001 -0.000001 -42.512023 -1.264238 27.526436 36.765805 -3.066122 -8.210484 -8.140084 1.097982 -13.128026 0.000000 0.000002 -0.000000 -0.000000 -0.000001 -0.000003 -38.102641 -11.268156 -11.530677 42.175540 -2.532238 -7.375403 -19.280536 0.094411 17.920985 -0.000000 0.000000 -0.000000 0.000002 0.000000 -0.000000 14.390778 -0.615399 -7.616079 11.065126 -1.176959 -9.455967 11.083415 -0.673406 -8.064199 -15.452687 24.849405 -4.404126 -5.245514 21.295813 -11.417587 -0.000000 0.000000 -0.000000 -0.000000 0.000000 -0.000000 -0.000000 0.000000 -0.000000 -0.000000 0.000000 -0.000000 -0.000000 0.000000 -0.000000 -0.000000 0.000000 -0.000000 -0.000000 0.000000 -0.000000 -0.000000 0.000000 -0.000000 -0.000000 0.000000 -0.000000 -0.250285 -22.154782 -0.325599 -36.892638 8.555099 -8.641704 44.202000 -55.006819 35.001151 -10.733155 -6.823315 26.477500 0.208191 1.061082 11.643418 5.077215 28.288634 1.039105 -0.000003 -0.000000 0.000000 13.437636 -1.066349 -3.639573 -0.150484 0.301791 -45.430091 0.000004 0.000000 0.000005 8.373300 -0.161791 -14.844496 0.323168 0.679994 -43.832777 -0.000000 -0.000003 -0.000001 6.041106 3.317097 -29.666855 0.085925 0.400430 -43.587781 -0.000001 0.000002 -0.000001 -5.627848 7.769799 -26.809940 0.278766 0.310714 -59.521588 0.000004 -0.000001 0.000004 -0.000002 0.000002 0.000000 -0.338165 22.893269 1.907496 -50.361006 -47.693978 12.032758 18.612464 122.855869 -4.115592 -29.049051 -10.904957 -15.826761 1.098973 -0.576168 -14.603549 2.585427 -20.826749 1.676193 0.000002 -0.000001 -0.000000 19.219046 10.805060 6.113719 -0.098270 -0.344094 37.499337 0.000002 -0.000002 -0.000000 4.304069 2.166724 14.657516 0.412674 -0.535755 46.354182 0.000004 0.000000 -0.000002 -6.577013 -10.472142 25.214287 0.164456 -0.203837 45.619148 0.000001 0.000001 0.000000 -18.714017 -19.677101 25.584231 0.298859 -0.147674 56.307950 -0.000001 0.000001 -0.000003 0.000000 0.000003 0.000001 0.000002 -0.000000 -0.000001 -0.000000 0.000000 0.000002 0.000002 -0.000000 0.000001 0.000002 -0.000000 0.000001 0.000002 -0.000000 -0.000001 -0.000000 0.000000 0.000003 0.000002 -0.000000 0.000001 0.000002 -0.000000 0.000001 0.000002 -0.000000 -0.000001 -0.000000 0.000000 0.000003 -0.000000 0.000001 -0.000001 -0.000000 0.000001 -0.000001 -0.000000 0.000001 -0.000001 
-1.976594 64.632957 110.584473 26.239920 -54.239683 18.414397 -0.000001 -0.000002 0.000000 -42.116190 -0.539102 26.985961 37.899552 -3.276880 -8.430214 -9.264891 0.966253 -12.274062 -0.000000 -0.000003 0.000000 0.000000 0.000003 0.000001 -36.927814 -11.271758 -12.606569 41.158778 -2.029935 -7.226011 -18.953503 0.342456 18.484705 0.000000 0.000002 0.000000 0.000000 -0.000003 0.000000 13.887891 -0.400300 -7.462575 10.807444 -0.708418 -9.206986 10.823064 -0.219781 -7.784184 -17.532898 24.152435 -2.402833 -5.585309 21.544131 -10.168890 0.000000 0.000000 -0.000000 0.000000 0.000000 -0.000000 0.000000 0.000000 -0.000000 0.000000 0.000000 -0.000000 -0.000002 0.000000 -0.000000 0.000000 0.000000 -0.000000 -0.000002 0.000000 -0.000000 0.000000 0.000000 -0.000000 0.000000 0.000000 -0.000000 -0.876813 -21.922474 -0.556061 -34.833774 9.853112 -9.482323 45.249614 -56.059116 35.837388 -11.128984 -7.251870 25.845946 0.234835 0.966193 11.479035 5.041515 28.178587 1.000880 0.000002 0.000001 0.000001 13.434747 -1.065511 -3.450345 -0.150761 0.302307 -45.240793 0.000003 0.000003 0.000000 8.377185 -0.166835 -14.440534 0.322235 0.679622 -43.428757 0.000002 -0.000002 -0.000005 6.044186 3.309775 -29.171642 0.083904 0.397679 -43.092487 -0.000002 0.000002 -0.000002 -5.614630 7.759428 -26.261567 0.276339 0.310359 -58.971730 0.000001 0.000002 0.000003 -0.000002 0.000002 -0.000003 -0.904965 22.907449 1.354292 -56.806752 -46.708710 5.397733 23.278736 125.202750 -6.899238 -27.777618 -12.758797 -17.667292 1.208738 -2.125032 -15.158326 2.874313 -21.673696 1.349716 0.000001 -0.000001 -0.000000 19.333108 10.929999 8.781173 -0.095573 -0.345151 40.171495 -0.000003 0.000000 0.000000 4.242402 2.150191 17.329812 0.426697 -0.542570 49.026336 0.000001 0.000002 -0.000002 -6.722585 -10.611842 27.874431 0.173646 -0.218153 48.291309 -0.000001 0.000001 -0.000001 -18.949643 -19.881636 28.211270 0.310446 -0.154082 58.980118 -0.000000 -0.000002 0.000000 -0.000000 0.000002 -0.000000 -0.000002 -0.000001 -0.000002 -0.000004 0.000001 -0.000000 -0.000002 -0.000001 -0.000003 -0.000002 -0.000001 -0.000003 -0.000002 -0.000001 -0.000002 -0.000004 0.000001 -0.000000 -0.000002 -0.000001 -0.000003 -0.000002 -0.000001 -0.000003 -0.000002 -0.000001 -0.000002 -0.000004 0.000001 -0.000000 -0.000001 -0.000002 0.000000 -0.000001 -0.000002 0.000000 -0.000001 -0.000002 0.000000 
